<svg xmlns="http://www.w3.org/2000/svg" viewBox="0 0 74.72 55.1"><defs fill="#000000"><style>.b6b8eb41-2017-47e4-bcd9-f75851dce01e{fill:#000000;fill-rule:evenodd;}</style></defs><g id="b1a1ef3d-ab80-44f5-9114-3d897056e7c2" data-name="Ebene 2"><g id="fd2e4767-1d7e-4dac-802a-97e22ffe1865" data-name="Ebene 3"><path class="b6b8eb41-2017-47e4-bcd9-f75851dce01e" d="M53.57,55.1a24.06,24.06,0,0,1-11.52-3.54.11.11,0,0,1,0-.17,21.49,21.49,0,0,0,4.75-8.33A.13.13,0,0,1,47,43a11.1,11.1,0,0,0,8.35,2,11.3,11.3,0,0,0,7.38-4.5,3,3,0,0,1,.31-.39A11.28,11.28,0,0,0,61.55,26l-.2-.22A11.28,11.28,0,0,0,42.29,34,21.15,21.15,0,0,1,6.19,48.91h0A21.1,21.1,0,0,1,6.19,19l0,0a21.09,21.09,0,0,1,15.48-6,4,4,0,0,0,4.07-4V5.14A5.08,5.08,0,0,1,30.2,0a4.94,4.94,0,0,1,5.42,4.91V13.4a.31.31,0,0,1-.06.19c-.79,1-5.12,3.5-7.61,11.31,0,.07-.13.08-.19,0l-.28-.22h0A11.3,11.3,0,0,0,12,27.41a4.7,4.7,0,0,1-.35.43A11.34,11.34,0,0,0,13.16,42h0a11.29,11.29,0,0,0,19.26-8A21.06,21.06,0,0,1,38.62,19l0,0a21.08,21.08,0,0,1,29.57-.29l.31.29A21.14,21.14,0,0,1,53.57,55.1Z" fill="#000000"/></g></g></svg>